<mxfile host="Electron" modified="2023-09-22T20:59:25.994Z" agent="Mozilla/5.0 (Windows NT 10.0; Win64; x64) AppleWebKit/537.36 (KHTML, like Gecko) draw.io/21.7.5 Chrome/114.0.5735.289 Electron/25.8.1 Safari/537.36" etag="Q7V6mN7DUaHKI3Miq-o6" version="21.7.5" type="device" pages="2">
  <diagram id="cvKExaeLmnKUIWIGKWON" name="sd">
    <mxGraphModel dx="869" dy="664" grid="1" gridSize="10" guides="1" tooltips="1" connect="1" arrows="1" fold="1" page="1" pageScale="1" pageWidth="1169" pageHeight="827" math="0" shadow="0">
      <root>
        <mxCell id="0" />
        <mxCell id="1" parent="0" />
        <mxCell id="-yav23MqyK7CyO7x3P25-18" style="edgeStyle=orthogonalEdgeStyle;rounded=0;orthogonalLoop=1;jettySize=auto;html=1;exitX=0.5;exitY=1;exitDx=0;exitDy=0;entryX=0.5;entryY=0;entryDx=0;entryDy=0;startArrow=block;startFill=1;endArrow=none;endFill=0;" parent="1" source="-yav23MqyK7CyO7x3P25-1" target="-yav23MqyK7CyO7x3P25-6" edge="1">
          <mxGeometry relative="1" as="geometry" />
        </mxCell>
        <mxCell id="-yav23MqyK7CyO7x3P25-1" value="House Value&lt;br&gt;Increase" style="rounded=0;whiteSpace=wrap;html=1;" parent="1" vertex="1">
          <mxGeometry x="320" y="120" width="120" height="60" as="geometry" />
        </mxCell>
        <mxCell id="-yav23MqyK7CyO7x3P25-3" style="edgeStyle=orthogonalEdgeStyle;rounded=0;orthogonalLoop=1;jettySize=auto;html=1;exitX=0.75;exitY=1;exitDx=0;exitDy=0;endArrow=block;endFill=1;" parent="1" source="-yav23MqyK7CyO7x3P25-2" edge="1">
          <mxGeometry relative="1" as="geometry">
            <mxPoint x="210" y="320" as="targetPoint" />
          </mxGeometry>
        </mxCell>
        <mxCell id="-yav23MqyK7CyO7x3P25-17" style="edgeStyle=orthogonalEdgeStyle;rounded=0;orthogonalLoop=1;jettySize=auto;html=1;exitX=0.5;exitY=0;exitDx=0;exitDy=0;startArrow=none;startFill=0;endArrow=none;endFill=0;" parent="1" source="-yav23MqyK7CyO7x3P25-2" edge="1">
          <mxGeometry relative="1" as="geometry">
            <mxPoint x="180" y="200" as="targetPoint" />
          </mxGeometry>
        </mxCell>
        <mxCell id="-yav23MqyK7CyO7x3P25-2" value="Read values&lt;br&gt;from file" style="rounded=0;whiteSpace=wrap;html=1;" parent="1" vertex="1">
          <mxGeometry x="120" y="240" width="120" height="60" as="geometry" />
        </mxCell>
        <mxCell id="-yav23MqyK7CyO7x3P25-4" value="postcodes()&lt;br&gt;origValues()" style="text;html=1;strokeColor=none;fillColor=none;align=center;verticalAlign=top;whiteSpace=wrap;rounded=0;" parent="1" vertex="1">
          <mxGeometry x="170" y="320" width="80" height="40" as="geometry" />
        </mxCell>
        <mxCell id="-yav23MqyK7CyO7x3P25-7" style="edgeStyle=orthogonalEdgeStyle;rounded=0;orthogonalLoop=1;jettySize=auto;html=1;exitX=0.25;exitY=1;exitDx=0;exitDy=0;endArrow=none;endFill=0;startArrow=block;startFill=1;" parent="1" source="-yav23MqyK7CyO7x3P25-6" edge="1">
          <mxGeometry relative="1" as="geometry">
            <mxPoint x="350" y="360" as="targetPoint" />
          </mxGeometry>
        </mxCell>
        <mxCell id="-yav23MqyK7CyO7x3P25-8" style="edgeStyle=orthogonalEdgeStyle;rounded=0;orthogonalLoop=1;jettySize=auto;html=1;exitX=0.75;exitY=1;exitDx=0;exitDy=0;endArrow=block;endFill=1;" parent="1" source="-yav23MqyK7CyO7x3P25-6" edge="1">
          <mxGeometry relative="1" as="geometry">
            <mxPoint x="410" y="320" as="targetPoint" />
          </mxGeometry>
        </mxCell>
        <mxCell id="-yav23MqyK7CyO7x3P25-6" value="Calculate increased price" style="rounded=0;whiteSpace=wrap;html=1;" parent="1" vertex="1">
          <mxGeometry x="320" y="240" width="120" height="60" as="geometry" />
        </mxCell>
        <mxCell id="-yav23MqyK7CyO7x3P25-9" value="postcodes()&lt;br&gt;origValues()" style="text;html=1;strokeColor=none;fillColor=none;align=center;verticalAlign=top;whiteSpace=wrap;rounded=0;rotation=0;" parent="1" vertex="1">
          <mxGeometry x="310" y="360" width="80" height="40" as="geometry" />
        </mxCell>
        <mxCell id="-yav23MqyK7CyO7x3P25-10" value="newValues()" style="text;html=1;strokeColor=none;fillColor=none;align=center;verticalAlign=top;whiteSpace=wrap;rounded=0;" parent="1" vertex="1">
          <mxGeometry x="370" y="320" width="80" height="30" as="geometry" />
        </mxCell>
        <mxCell id="-yav23MqyK7CyO7x3P25-11" style="edgeStyle=orthogonalEdgeStyle;rounded=0;orthogonalLoop=1;jettySize=auto;html=1;exitX=0.25;exitY=1;exitDx=0;exitDy=0;endArrow=none;endFill=0;startArrow=block;startFill=1;" parent="1" source="-yav23MqyK7CyO7x3P25-13" edge="1">
          <mxGeometry relative="1" as="geometry">
            <mxPoint x="550" y="360" as="targetPoint" />
          </mxGeometry>
        </mxCell>
        <mxCell id="-yav23MqyK7CyO7x3P25-20" style="edgeStyle=orthogonalEdgeStyle;rounded=0;orthogonalLoop=1;jettySize=auto;html=1;exitX=0.5;exitY=0;exitDx=0;exitDy=0;startArrow=none;startFill=0;endArrow=none;endFill=0;" parent="1" source="-yav23MqyK7CyO7x3P25-13" edge="1">
          <mxGeometry relative="1" as="geometry">
            <mxPoint x="580" y="200" as="targetPoint" />
          </mxGeometry>
        </mxCell>
        <mxCell id="-yav23MqyK7CyO7x3P25-13" value="Write values&lt;br&gt;to file" style="rounded=0;whiteSpace=wrap;html=1;" parent="1" vertex="1">
          <mxGeometry x="520" y="240" width="120" height="60" as="geometry" />
        </mxCell>
        <mxCell id="-yav23MqyK7CyO7x3P25-14" value="postcodes()&lt;br&gt;origValues()&lt;br&gt;newValues()" style="text;html=1;strokeColor=none;fillColor=none;align=center;verticalAlign=top;whiteSpace=wrap;rounded=0;" parent="1" vertex="1">
          <mxGeometry x="510" y="360" width="80" height="60" as="geometry" />
        </mxCell>
        <mxCell id="-yav23MqyK7CyO7x3P25-16" value="" style="endArrow=none;html=1;rounded=0;" parent="1" edge="1">
          <mxGeometry width="50" height="50" relative="1" as="geometry">
            <mxPoint x="180" y="200" as="sourcePoint" />
            <mxPoint x="580" y="200" as="targetPoint" />
          </mxGeometry>
        </mxCell>
      </root>
    </mxGraphModel>
  </diagram>
  <diagram name="Example" id="Puo8KqAzCMw6Bob4SH1M">
    <mxGraphModel dx="869" dy="664" grid="1" gridSize="10" guides="1" tooltips="1" connect="1" arrows="1" fold="1" page="1" pageScale="1" pageWidth="1169" pageHeight="827" math="0" shadow="0">
      <root>
        <mxCell id="5r49eWNP3dl64256hJwa-0" />
        <mxCell id="5r49eWNP3dl64256hJwa-1" parent="5r49eWNP3dl64256hJwa-0" />
        <mxCell id="5r49eWNP3dl64256hJwa-2" style="edgeStyle=orthogonalEdgeStyle;rounded=0;orthogonalLoop=1;jettySize=auto;html=1;exitX=0.5;exitY=1;exitDx=0;exitDy=0;entryX=0.5;entryY=0;entryDx=0;entryDy=0;startArrow=block;startFill=1;endArrow=none;endFill=0;" parent="5r49eWNP3dl64256hJwa-1" source="5r49eWNP3dl64256hJwa-3" target="5r49eWNP3dl64256hJwa-10" edge="1">
          <mxGeometry relative="1" as="geometry" />
        </mxCell>
        <mxCell id="5r49eWNP3dl64256hJwa-3" value="House Value&lt;br&gt;Increase" style="rounded=0;whiteSpace=wrap;html=1;" parent="5r49eWNP3dl64256hJwa-1" vertex="1">
          <mxGeometry x="320" y="120" width="120" height="60" as="geometry" />
        </mxCell>
        <mxCell id="5r49eWNP3dl64256hJwa-4" style="edgeStyle=orthogonalEdgeStyle;rounded=0;orthogonalLoop=1;jettySize=auto;html=1;exitX=0.75;exitY=1;exitDx=0;exitDy=0;endArrow=block;endFill=1;" parent="5r49eWNP3dl64256hJwa-1" source="5r49eWNP3dl64256hJwa-6" edge="1">
          <mxGeometry relative="1" as="geometry">
            <mxPoint x="210" y="320" as="targetPoint" />
          </mxGeometry>
        </mxCell>
        <mxCell id="5r49eWNP3dl64256hJwa-5" style="edgeStyle=orthogonalEdgeStyle;rounded=0;orthogonalLoop=1;jettySize=auto;html=1;exitX=0.5;exitY=0;exitDx=0;exitDy=0;startArrow=none;startFill=0;endArrow=none;endFill=0;" parent="5r49eWNP3dl64256hJwa-1" source="5r49eWNP3dl64256hJwa-6" edge="1">
          <mxGeometry relative="1" as="geometry">
            <mxPoint x="180" y="200" as="targetPoint" />
          </mxGeometry>
        </mxCell>
        <mxCell id="5r49eWNP3dl64256hJwa-6" value="Read values&lt;br&gt;from file" style="rounded=0;whiteSpace=wrap;html=1;" parent="5r49eWNP3dl64256hJwa-1" vertex="1">
          <mxGeometry x="120" y="240" width="120" height="60" as="geometry" />
        </mxCell>
        <mxCell id="5r49eWNP3dl64256hJwa-7" value="postcodes()&lt;br&gt;origValues()" style="text;html=1;strokeColor=none;fillColor=none;align=center;verticalAlign=top;whiteSpace=wrap;rounded=0;" parent="5r49eWNP3dl64256hJwa-1" vertex="1">
          <mxGeometry x="170" y="320" width="80" height="40" as="geometry" />
        </mxCell>
        <mxCell id="5r49eWNP3dl64256hJwa-8" style="edgeStyle=orthogonalEdgeStyle;rounded=0;orthogonalLoop=1;jettySize=auto;html=1;exitX=0.25;exitY=1;exitDx=0;exitDy=0;endArrow=none;endFill=0;startArrow=block;startFill=1;" parent="5r49eWNP3dl64256hJwa-1" source="5r49eWNP3dl64256hJwa-10" edge="1">
          <mxGeometry relative="1" as="geometry">
            <mxPoint x="350" y="360" as="targetPoint" />
          </mxGeometry>
        </mxCell>
        <mxCell id="5r49eWNP3dl64256hJwa-9" style="edgeStyle=orthogonalEdgeStyle;rounded=0;orthogonalLoop=1;jettySize=auto;html=1;exitX=0.75;exitY=1;exitDx=0;exitDy=0;endArrow=block;endFill=1;" parent="5r49eWNP3dl64256hJwa-1" source="5r49eWNP3dl64256hJwa-10" edge="1">
          <mxGeometry relative="1" as="geometry">
            <mxPoint x="410" y="320" as="targetPoint" />
          </mxGeometry>
        </mxCell>
        <mxCell id="5r49eWNP3dl64256hJwa-10" value="Calculate increased price" style="rounded=0;whiteSpace=wrap;html=1;" parent="5r49eWNP3dl64256hJwa-1" vertex="1">
          <mxGeometry x="320" y="240" width="120" height="60" as="geometry" />
        </mxCell>
        <mxCell id="5r49eWNP3dl64256hJwa-11" value="postcodes()&lt;br&gt;origValues()" style="text;html=1;strokeColor=none;fillColor=none;align=center;verticalAlign=top;whiteSpace=wrap;rounded=0;rotation=0;" parent="5r49eWNP3dl64256hJwa-1" vertex="1">
          <mxGeometry x="310" y="360" width="80" height="40" as="geometry" />
        </mxCell>
        <mxCell id="5r49eWNP3dl64256hJwa-12" value="newValues()" style="text;html=1;strokeColor=none;fillColor=none;align=center;verticalAlign=top;whiteSpace=wrap;rounded=0;" parent="5r49eWNP3dl64256hJwa-1" vertex="1">
          <mxGeometry x="370" y="320" width="80" height="30" as="geometry" />
        </mxCell>
        <mxCell id="5r49eWNP3dl64256hJwa-13" style="edgeStyle=orthogonalEdgeStyle;rounded=0;orthogonalLoop=1;jettySize=auto;html=1;exitX=0.25;exitY=1;exitDx=0;exitDy=0;endArrow=none;endFill=0;startArrow=block;startFill=1;" parent="5r49eWNP3dl64256hJwa-1" source="5r49eWNP3dl64256hJwa-15" edge="1">
          <mxGeometry relative="1" as="geometry">
            <mxPoint x="550" y="360" as="targetPoint" />
          </mxGeometry>
        </mxCell>
        <mxCell id="5r49eWNP3dl64256hJwa-14" style="edgeStyle=orthogonalEdgeStyle;rounded=0;orthogonalLoop=1;jettySize=auto;html=1;exitX=0.5;exitY=0;exitDx=0;exitDy=0;startArrow=none;startFill=0;endArrow=none;endFill=0;" parent="5r49eWNP3dl64256hJwa-1" source="5r49eWNP3dl64256hJwa-15" edge="1">
          <mxGeometry relative="1" as="geometry">
            <mxPoint x="580" y="200" as="targetPoint" />
          </mxGeometry>
        </mxCell>
        <mxCell id="5r49eWNP3dl64256hJwa-15" value="Write values&lt;br&gt;to file" style="rounded=0;whiteSpace=wrap;html=1;" parent="5r49eWNP3dl64256hJwa-1" vertex="1">
          <mxGeometry x="520" y="240" width="120" height="60" as="geometry" />
        </mxCell>
        <mxCell id="5r49eWNP3dl64256hJwa-16" value="postcodes()&lt;br&gt;origValues()&lt;br&gt;newValues()" style="text;html=1;strokeColor=none;fillColor=none;align=center;verticalAlign=top;whiteSpace=wrap;rounded=0;" parent="5r49eWNP3dl64256hJwa-1" vertex="1">
          <mxGeometry x="510" y="360" width="80" height="60" as="geometry" />
        </mxCell>
        <mxCell id="5r49eWNP3dl64256hJwa-17" value="" style="endArrow=none;html=1;rounded=0;" parent="5r49eWNP3dl64256hJwa-1" edge="1">
          <mxGeometry width="50" height="50" relative="1" as="geometry">
            <mxPoint x="180" y="200" as="sourcePoint" />
            <mxPoint x="580" y="200" as="targetPoint" />
          </mxGeometry>
        </mxCell>
        <mxCell id="5r49eWNP3dl64256hJwa-18" value="&lt;b&gt;House Values (csv)&lt;br&gt;&lt;/b&gt;&lt;br&gt;&lt;div&gt;HS1 6AF,243818&lt;/div&gt;&lt;div&gt;HS6 8YP,201117&lt;/div&gt;&lt;div&gt;&amp;nbsp; ...&lt;/div&gt;&lt;div&gt;&lt;div&gt;HS6 4EH,227561&lt;/div&gt;&lt;div&gt;HS1 4GE,114389&lt;/div&gt;&lt;/div&gt;" style="text;html=1;strokeColor=default;fillColor=none;align=left;verticalAlign=top;whiteSpace=wrap;rounded=0;dashed=1;spacing=2;" parent="5r49eWNP3dl64256hJwa-1" vertex="1">
          <mxGeometry x="120" y="440" width="120" height="116" as="geometry" />
        </mxCell>
        <mxCell id="5r49eWNP3dl64256hJwa-19" value="&lt;b&gt;New Values (csv)&lt;br&gt;&lt;/b&gt;&lt;br&gt;&lt;div&gt;&lt;div&gt;HS1 6AF,243818,246256&lt;/div&gt;&lt;div&gt;HS6 8YP,201117,213184&lt;/div&gt;&lt;/div&gt;&lt;div&gt;&amp;nbsp; ...&lt;/div&gt;&lt;div&gt;&lt;div&gt;HS6 4EH,227561,241215&lt;/div&gt;&lt;div&gt;HS1 4GE,114389,115533&lt;/div&gt;&lt;/div&gt;" style="text;html=1;strokeColor=default;fillColor=none;align=left;verticalAlign=top;whiteSpace=wrap;rounded=0;dashed=1;spacing=2;" parent="5r49eWNP3dl64256hJwa-1" vertex="1">
          <mxGeometry x="500" y="440" width="140" height="116" as="geometry" />
        </mxCell>
        <mxCell id="5r49eWNP3dl64256hJwa-20" value="&lt;b&gt;Value Increase&lt;br&gt;&lt;/b&gt;&lt;br&gt;&lt;div&gt;HS&lt;b&gt;1&lt;/b&gt; xxx --&amp;gt; &lt;b&gt;1&lt;/b&gt;%&lt;/div&gt;&lt;div&gt;HS&lt;b&gt;2&lt;/b&gt; xxx --&amp;gt; &lt;b&gt;2&lt;/b&gt;%&lt;/div&gt;&lt;div&gt;&amp;nbsp; ...&lt;/div&gt;&lt;div&gt;&lt;div&gt;HS&lt;b&gt;8&lt;/b&gt; xxx --&amp;gt; &lt;b&gt;8&lt;/b&gt;%&lt;/div&gt;&lt;div&gt;HS&lt;b&gt;9&lt;/b&gt; xxx --&amp;gt; &lt;b&gt;9&lt;/b&gt;%&lt;/div&gt;&lt;/div&gt;" style="text;html=1;strokeColor=default;fillColor=none;align=left;verticalAlign=top;whiteSpace=wrap;rounded=0;dashed=1;spacing=2;" parent="5r49eWNP3dl64256hJwa-1" vertex="1">
          <mxGeometry x="320" y="440" width="120" height="116" as="geometry" />
        </mxCell>
      </root>
    </mxGraphModel>
  </diagram>
</mxfile>
